<?xml version="1.0" encoding="UTF-8"?>
<svg width="24px" height="24px" viewBox="0 0 24 24" version="1.1" xmlns="http://www.w3.org/2000/svg" xmlns:xlink="http://www.w3.org/1999/xlink">
    <title>opensea</title>
    <g id="Page-1" stroke="none" stroke-width="1" fill="none" fill-rule="evenodd">
        <g id="opensea" fill-rule="nonzero">
            <path d="M12,0 C5.374,0 0,5.374 0,12 C0,18.626 5.374,24 12,24 C18.626,24 24,18.626 24,12 C24,5.374 18.629,0 12,0 Z" id="Shape" fill="#000000" opacity="0"></path>
            <path d="M5.92,12.403 L5.971,12.322 L9.094,7.438 C9.1153041,7.40530092 9.15272157,7.38679447 9.1916395,7.38970811 C9.23055743,7.39262175 9.26480222,7.41649329 9.281,7.452 C9.801,8.621 10.253,10.075 10.041,10.98 C9.953,11.352 9.706,11.856 9.427,12.322 C9.39120785,12.3901679 9.35216289,12.4565777 9.31,12.521 C9.28948508,12.5501906 9.25566145,12.5671024 9.22,12.5660508 L6.013,12.5660508 C5.97400092,12.5666027 5.93782141,12.5457394 5.91880861,12.5116835 C5.8997958,12.4776276 5.90102163,12.4358816 5.922,12.403 L5.92,12.403 Z" id="Path" fill="#FFFFFF"></path>
            <path d="M19.8340075,14.083 C19.8345094,14.1266442 19.8089343,14.1663839 19.769,14.184 C19.526,14.287 18.699,14.669 18.355,15.146 C17.477,16.368 16.807,18.116 15.307,18.116 L9.053,18.116 C7.9865738,18.1144106 6.96450143,17.6890438 6.21183139,16.9335604 C5.45916135,16.1780769 5.0376107,15.1544247 5.0399899,14.088 L5.0399899,14.016 C5.0399899,13.958 5.088,13.91 5.148,13.91 L8.633,13.91 C8.703,13.91 8.753,13.973 8.748,14.042 C8.722,14.268 8.765,14.501 8.873,14.712 C9.079,15.132 9.509,15.394 9.972,15.394 L11.698,15.394 L11.698,14.047 L9.99,14.047 C9.94921212,14.046567 9.91201269,14.023599 9.89335264,13.9873273 C9.87469259,13.9510555 9.87763605,13.907436 9.901,13.874 L9.964,13.784 C10.124,13.553 10.355,13.198 10.585,12.792 C10.741,12.518 10.893,12.226 11.015,11.932 C11.039,11.88 11.058,11.825 11.08,11.772 C11.113,11.678 11.147,11.59 11.171,11.503 C11.1945525,11.4292294 11.2162262,11.354872 11.236,11.28 C11.293,11.03 11.317,10.766 11.317,10.493 C11.317,10.385 11.313,10.272 11.303,10.166 C11.298,10.049 11.283,9.931 11.269,9.814 C11.2578178,9.70931571 11.2418007,9.60520451 11.221,9.502 C11.1940895,9.34484987 11.1614006,9.18874408 11.123,9.034 L11.109,8.974 C11.079,8.866 11.053,8.764 11.019,8.657 C10.9237799,8.32840746 10.8143436,8.00410232 10.691,7.685 C10.6480245,7.56496975 10.6006593,7.44655676 10.549,7.33 C10.477,7.152 10.403,6.991 10.336,6.84 C10.3026627,6.77530847 10.2713146,6.709611 10.242,6.643 C10.2094757,6.57113935 10.1751313,6.50011645 10.139,6.43 C10.115,6.377 10.086,6.326 10.067,6.278 L9.856,5.89 C9.827,5.837 9.875,5.772 9.933,5.789 L11.253,6.146 L11.263,6.146 L11.436,6.196 L11.628,6.25 L11.698,6.269 L11.698,5.486 C11.698,5.107 12,4.79999761 12.377,4.79999761 C12.5568839,4.79951604 12.7291716,4.87247645 12.854,5.002 C12.9816794,5.13078245 13.0535267,5.30465303 13.054,5.486 L13.054,6.65 L13.195,6.689 C13.205,6.694 13.217,6.699 13.226,6.706 C13.26,6.73 13.31,6.768 13.373,6.816 C13.423,6.854 13.476,6.902 13.538,6.953 C13.7354692,7.11388052 13.9269328,7.28199496 14.112,7.457 C14.326,7.656 14.566,7.889 14.796,8.148 C14.861,8.222 14.923,8.294 14.988,8.374 C15.05,8.453 15.12,8.53 15.178,8.606 C15.257,8.71 15.338,8.818 15.413,8.93 C15.446,8.983 15.487,9.038 15.518,9.091 C15.614,9.233 15.696,9.379 15.775,9.526 C15.809,9.593 15.842,9.667 15.871,9.739 C15.96,9.936 16.03,10.135 16.073,10.337 C16.0872271,10.3798728 16.0969463,10.4241119 16.102,10.469 L16.102,10.479 C16.116,10.536 16.121,10.599 16.126,10.663 C16.1541573,10.9585692 16.1179958,11.2567309 16.02,11.537 C15.989,11.621 15.96,11.707 15.922,11.791 C15.847,11.961 15.761,12.134 15.658,12.293 C15.624,12.353 15.583,12.415 15.545,12.475 C15.502,12.538 15.456,12.598 15.418,12.655 C15.3630105,12.7307237 15.3053062,12.8044383 15.245,12.876 C15.192,12.948 15.139,13.02 15.079,13.085 C14.998,13.183 14.919,13.275 14.834,13.363 C14.786,13.421 14.734,13.481 14.678,13.533 C14.626,13.593 14.57,13.646 14.522,13.694 C14.438,13.778 14.372,13.841 14.314,13.896 L14.177,14.018 C14.1579223,14.0371439 14.1320267,14.0479338 14.105,14.048 L13.054,14.048 L13.054,15.394 L14.376,15.394 C14.671,15.394 14.952,15.29 15.18,15.096 C15.257,15.029 15.595,14.736 15.996,14.294 C16.0090653,14.2789528 16.0265747,14.2684472 16.046,14.264 L19.696,13.207 C19.7284874,13.1976051 19.7634998,13.2039704 19.7906017,13.2241987 C19.8177036,13.2444269 19.8337655,13.2761823 19.8340075,13.31 L19.8340075,14.083 Z" id="Path" fill="#000000"></path>
        </g>
    </g>
</svg>